<?xml version="1.0" encoding="iso-8859-1"?>
<!-- Generator: Adobe Illustrator 19.0.0, SVG Export Plug-In . SVG Version: 6.00 Build 0)  -->
<svg version="1.1" id="Capa_1" xmlns="http://www.w3.org/2000/svg" xmlns:xlink="http://www.w3.org/1999/xlink" x="0px" y="0px"
	 viewBox="0 0 512 512" style="enable-background:new 0 0 512 512;" xml:space="preserve">
<path style="fill:#FCB653;" d="M338.656,76.812H39.283C23.11,76.812,10,89.922,10,106.094v281.771
	c0,16.173,13.11,29.283,29.283,29.283h244.39l105.352,70.004l8.529-70.004h15.46c16.173,0,29.283-13.11,29.283-29.283V148.08"/>
<g>
	<polyline style="fill:#FEC872;" points="236.499,375.175 296.346,375.175 355.587,414.54 360.382,375.175 400.323,375.175 
		400.323,150.552 362.761,118.785 51.973,118.785 51.973,375.175 141.999,375.175 	"/>
</g>
<path d="M183.149,385.171c-0.65,0-1.31-0.06-1.95-0.19c-0.64-0.13-1.27-0.32-1.88-0.57c-0.6-0.25-1.18-0.56-1.72-0.921
	c-0.55-0.37-1.06-0.79-1.52-1.25c-0.46-0.46-0.88-0.97-1.25-1.52c-0.36-0.54-0.66-1.12-0.91-1.72c-0.25-0.61-0.45-1.23-0.57-1.87
	c-0.13-0.65-0.2-1.3-0.2-1.96c0-0.65,0.07-1.31,0.2-1.95c0.12-0.64,0.32-1.27,0.57-1.87c0.25-0.61,0.55-1.19,0.91-1.73
	c0.37-0.55,0.79-1.06,1.25-1.52c0.46-0.46,0.97-0.88,1.52-1.24c0.54-0.36,1.12-0.67,1.72-0.92c0.61-0.25,1.24-0.44,1.88-0.57
	c3.24-0.66,6.7,0.41,9.02,2.73c1.86,1.86,2.93,4.44,2.93,7.07c0,0.66-0.07,1.31-0.2,1.96c-0.12,0.64-0.32,1.26-0.57,1.87
	c-0.25,0.6-0.56,1.18-0.92,1.72c-0.36,0.55-0.78,1.06-1.24,1.52C188.359,384.111,185.779,385.171,183.149,385.171z"/>
<path style="fill:#5BE5EF;" d="M150.748,179.584c1.372,0,8.105-6.867,9.155-7.791c8.004-7.056,18.302-10.942,28.993-10.942
	c4.626,0,9.296,0.721,13.882,2.144c14.209,4.406,25.172,16.127,28.613,30.587c1.29,5.422,1.638,10.852,1.038,16.134
	c-0.068,0.608,0.218,1.031,0.395,1.23c0.312,0.348,0.753,0.549,1.21,0.549c0.051,0,0.104-0.002,0.155-0.007
	c31.102-2.892,59.149-17.874,78.973-42.192c1.009-1.241,2.95-1.088,3.756,0.293c3.881,6.661,5.933,14.279,5.933,22.031
	c0,11.878-4.774,23.074-13.064,31.236c3.487-0.828,6.862-2.129,9.996-3.871c1.517-0.842,3.383,0.242,3.404,1.977
	c0.215,17.646-10.117,33.35-25.595,40.421c0.312,0.007,0.624,0.009,0.936,0.009c2.454,0,4.939-0.235,7.382-0.704
	c1.708-0.324,3.144,1.295,2.613,2.95c-5.026,15.687-18.53,27.248-34.691,29.871c13.413,9.004,29.034,13.753,45.289,13.753
	l5.066-0.003c1.563,0,2.885,1.019,3.281,2.531c0.392,1.488-0.329,3.061-1.662,3.835c-18.317,10.661-39.213,16.294-60.434,16.294
	c-18.576,0-35.951-3.685-51.645-10.956c-14.388-6.664-27.1-16.19-37.788-28.315c-9.957-11.295-17.741-24.333-23.139-38.754
	c-5.144-13.743-7.864-28.412-7.864-42.412v-0.668c0-2.248-1.016-4.363-2.79-5.805c-6.731-5.466-17.424-19.123-17.424-19.123
	S150.295,179.584,150.748,179.584z"/>
<path d="M265.371,339.917c-20.04,0-38.83-3.997-55.849-11.882c-15.652-7.25-29.476-17.605-41.086-30.777
	c-10.764-12.211-19.176-26.295-25.002-41.86c-5.495-14.68-8.43-30.361-8.498-45.385c-7.309-6.287-16.969-18.535-18.088-19.964
	c-2.174-2.776-2.725-6.493-1.449-9.78c1.275-3.288,4.187-5.661,7.664-6.246c14.278-2.402,20.891-3.505,24.126-4.011
	c1.438-1.243,3.624-3.358,4.463-4.171c0.773-0.748,1.366-1.312,1.642-1.555c9.828-8.663,22.473-13.437,35.601-13.437
	c5.633,0,11.301,0.873,16.846,2.593c17.565,5.447,31.122,19.94,35.377,37.822c0.712,2.996,1.187,5.998,1.421,8.991
	c24.697-4.495,46.755-17.514,62.869-37.28c2.534-3.118,6.435-4.803,10.473-4.489c4.021,0.311,7.636,2.575,9.67,6.058
	c4.775,8.197,7.297,17.556,7.297,27.073c0,7.017-1.326,13.819-3.859,20.124c2.588,2.276,4.151,5.589,4.194,9.093
	c0.178,14.498-5.476,28.149-15.203,38.181c0.822,2.452,0.873,5.146,0.064,7.669c-3.576,11.163-10.786,20.725-20.113,27.38
	c6.802,2.108,13.93,3.193,21.189,3.193l5.061-0.002c6.089,0,11.416,4.11,12.959,9.995c1.527,5.789-1.066,11.971-6.311,15.018
	C310.994,333.814,288.357,339.917,265.371,339.917z M143.829,190.831c1.681,1.769,3.285,3.332,4.62,4.415
	c4.124,3.352,6.486,8.296,6.486,13.568v0.668c0,12.817,2.5,26.271,7.229,38.906c4.969,13.276,12.128,25.269,21.275,35.646
	c9.765,11.079,21.369,19.777,34.489,25.854c14.366,6.655,30.328,10.029,47.443,10.029c11.21,0,22.321-1.715,32.938-5.037
	c-10.676-2.484-20.838-6.885-30.053-13.071c-3.408-2.288-5.071-6.427-4.195-10.438c0.877-4.011,4.115-7.078,8.167-7.736
	c8.633-1.401,16.341-6.198,21.528-13.018c-2.989-1.241-5.276-3.897-5.961-7.218c-0.941-4.566,1.397-9.178,5.639-11.115
	c8.493-3.879,14.835-11.021,17.833-19.54c-4.091,0.62-8.196-1.37-10.232-5.048c-2.172-3.926-1.464-8.819,1.734-11.967
	c6.499-6.4,10.079-14.962,10.079-24.11c0-2.155-0.205-4.296-0.607-6.394c-20.699,20.746-47.648,33.479-77.128,36.22
	c-0.333,0.032-0.716,0.049-1.081,0.049c-3.292,0-6.445-1.41-8.652-3.869c-2.214-2.502-3.251-5.767-2.891-9.011
	c0.472-4.159,0.193-8.429-0.827-12.719c-2.627-11.037-10.998-19.984-21.846-23.349c-3.626-1.125-7.299-1.695-10.92-1.695
	c-8.255,0-16.204,2.999-22.38,8.443c-0.157,0.145-0.507,0.487-0.953,0.918c-6.097,5.902-9.431,8.946-13.839,9.33
	C150.726,189.693,147.678,190.193,143.829,190.831z M135.837,210.769h0.01H135.837z M233.281,201.529
	c-0.017,0.001-0.034,0.003-0.051,0.005C233.247,201.532,233.264,201.531,233.281,201.529z M150.759,189.584
	c-0.004,0-0.007,0-0.011,0C150.751,189.584,150.755,189.584,150.759,189.584z M320.918,175.604
	c-0.004,0.005-0.009,0.011-0.013,0.016C320.909,175.615,320.914,175.61,320.918,175.604z M150.288,169.595
	c-0.43,0.021-0.832,0.069-1.202,0.135C149.695,169.646,150.039,169.61,150.288,169.595z"/>
<path style="fill:#E82852;" d="M501.723,67.344c-2.381-24.511-21.002-42.292-44.307-42.292c-15.516,0-29.736,7.794-37.73,20.257
	c-7.919-12.635-21.557-20.257-36.825-20.257c-23.309,0-41.926,17.781-44.311,42.292c-0.197,1.089-0.968,6.778,1.385,16.075
	c3.397,13.409,11.237,25.604,22.679,35.243l57.04,48.241l58.008-48.226c11.438-9.653,19.278-21.848,22.679-35.257
	C502.691,74.137,501.908,68.434,501.723,67.344L501.723,67.344z"/>
<path d="M511.645,66.063c-3.021-29.577-25.779-51.011-54.229-51.011c-14.31,0-27.669,5.32-37.648,14.652
	c-9.786-9.333-22.878-14.652-36.906-14.652c-28.44,0-51.197,21.419-54.23,50.984c-0.034,0.222-0.071,0.481-0.106,0.775H39.283
	C17.622,66.812,0,84.434,0,106.094v281.771c0,21.661,17.622,39.283,39.283,39.283h241.37l102.838,68.333
	c1.667,1.107,6.633,2.245,9.717,0.754c3.122-1.51,5.324-4.431,5.744-7.874l7.457-61.213h6.604c21.661,0,39.283-17.622,39.283-39.283
	V152.77l31.818-26.452c13.04-11.006,22.004-24.991,25.923-40.446C512.596,75.759,512.072,68.884,511.645,66.063z M432.295,387.865
	c0,10.632-8.65,19.283-19.283,19.283h-15.46c-5.055,0-9.315,3.772-9.927,8.79l-6.568,53.914l-91.852-61.033
	c-1.64-1.089-3.565-1.671-5.534-1.671H39.283c-10.633,0-19.283-8.65-19.283-19.283V106.094c0-10.632,8.65-19.283,19.283-19.283
	h291.204c2.08,7.774,5.442,15.164,9.959,21.973H51.974c-5.523,0-10,4.477-10,10v256.391c0,5.523,4.477,10,10,10h90.025
	c5.523,0,10-4.477,10-10s-4.477-10-10-10H61.974v-236.39h297.124l31.225,26.408v209.982h-29.94c-5.055,0-9.315,3.773-9.927,8.791
	l-2.835,23.274l-45.741-30.394c-1.64-1.089-3.565-1.671-5.534-1.671h-59.848c-5.523,0-10,4.477-10,10s4.477,10,10,10h56.828
	l56.727,37.694c1.667,1.107,3.596,1.671,5.535,1.671c1.422,0,2.849-0.303,4.182-0.917c3.15-1.451,5.324-4.431,5.744-7.873
	l3.725-30.574h31.085c5.522,0,10-4.477,10-10V172.107l2.874,2.431c1.863,1.576,4.16,2.365,6.458,2.365c2.27,0,4.54-0.77,6.393-2.311
	l6.248-5.194L432.295,387.865L432.295,387.865z M490.648,80.962c-2.885,11.378-9.605,21.777-19.378,30.026l-51.561,42.865
	l-50.491-42.703c-0.018-0.015-0.036-0.03-0.054-0.045l-0.107-0.09c-9.826-8.279-16.545-18.67-19.427-30.049
	c-1.912-7.554-1.242-11.824-1.238-11.848c0.048-0.267,0.085-0.535,0.111-0.805c1.876-19.272,16.325-33.261,34.358-33.261
	c11.644,0,22.241,5.819,28.351,15.567c1.819,2.902,4.996,4.671,8.421,4.689c3.397-0.001,6.62-1.718,8.47-4.601
	c6.194-9.657,17.427-15.656,29.313-15.656c18.033,0,32.481,13.987,34.354,33.259c0.022,0.235,0.054,0.47,0.094,0.703
	C491.871,69.058,492.567,73.383,490.648,80.962z"/>
<g>
</g>
<g>
</g>
<g>
</g>
<g>
</g>
<g>
</g>
<g>
</g>
<g>
</g>
<g>
</g>
<g>
</g>
<g>
</g>
<g>
</g>
<g>
</g>
<g>
</g>
<g>
</g>
<g>
</g>
</svg>
